<?xml version="1.0" standalone="no"?>
<!DOCTYPE svg PUBLIC "-//W3C//DTD SVG 20010904//EN"
 "http://www.w3.org/TR/2001/REC-SVG-20010904/DTD/svg10.dtd">
<svg version="1.0" xmlns="http://www.w3.org/2000/svg"
 width="250.000000pt" height="250.000000pt" viewBox="0 0 250.000000 250.000000"
 preserveAspectRatio="xMidYMid meet">
<metadata>
Created by potrace 1.14, written by Peter Selinger 2001-2017
</metadata>
<g transform="translate(0.000000,250.000000) scale(0.100000,-0.100000)"
fill="#000000" stroke="none">
<path d="M1050 2236 c-400 -84 -710 -397 -786 -794 -18 -95 -18 -289 0 -384
59 -306 261 -570 540 -708 160 -79 237 -95 446 -95 209 0 286 16 446 95 251
124 453 369 525 635 27 102 37 322 19 432 -61 378 -355 704 -725 804 -102 27
-364 36 -465 15z"/>
</g>
</svg>
